<svg width="100" height="20" viewBox="0 0 100 20" fill="none" xmlns="http://www.w3.org/2000/svg">
<path d="M16.673 10.1717C17.7437 9.36184 17.1709 7.65517 15.8284 7.65517H13.3992C12.7853 7.65517 12.243 7.25521 12.0617 6.66868L11.3375 4.32637C10.9309 3.01106 9.0691 3.01106 8.66246 4.32637L7.93832 6.66868C7.75699 7.25521 7.21469 7.65517 6.60078 7.65517H4.12961C2.79142 7.65517 2.21592 9.35274 3.27822 10.1665L5.39469 11.7879C5.85885 12.1435 6.05314 12.7501 5.88196 13.3092L5.11296 15.8207C4.71416 17.1232 6.22167 18.1704 7.30301 17.342L9.14861 15.9281C9.65097 15.5432 10.349 15.5432 10.8514 15.9281L12.6807 17.3295C13.7636 18.159 15.2725 17.1079 14.8696 15.8046L14.09 13.2827C13.9159 12.7198 14.113 12.1081 14.5829 11.7526L16.673 10.1717Z" fill="#FFAD33"/>
<path d="M36.673 10.1717C37.7437 9.36184 37.1709 7.65517 35.8284 7.65517H33.3992C32.7853 7.65517 32.243 7.25521 32.0617 6.66868L31.3375 4.32637C30.9309 3.01106 29.0691 3.01106 28.6625 4.32637L27.9383 6.66868C27.757 7.25521 27.2147 7.65517 26.6008 7.65517H24.1296C22.7914 7.65517 22.2159 9.35274 23.2782 10.1665L25.3947 11.7879C25.8588 12.1435 26.0531 12.7501 25.882 13.3092L25.113 15.8207C24.7142 17.1232 26.2217 18.1704 27.303 17.342L29.1486 15.9281C29.651 15.5432 30.349 15.5432 30.8514 15.9281L32.6807 17.3295C33.7636 18.159 35.2725 17.1079 34.8696 15.8046L34.09 13.2827C33.9159 12.7198 34.113 12.1081 34.5829 11.7526L36.673 10.1717Z" fill="#FFAD33"/>
<path d="M56.673 10.1717C57.7437 9.36184 57.1709 7.65517 55.8284 7.65517H53.3992C52.7853 7.65517 52.243 7.25521 52.0617 6.66868L51.3375 4.32637C50.9309 3.01106 49.0691 3.01106 48.6625 4.32637L47.9383 6.66868C47.757 7.25521 47.2147 7.65517 46.6008 7.65517H44.1296C42.7914 7.65517 42.2159 9.35274 43.2782 10.1665L45.3947 11.7879C45.8588 12.1435 46.0531 12.7501 45.882 13.3092L45.113 15.8207C44.7142 17.1232 46.2217 18.1704 47.303 17.342L49.1486 15.9281C49.651 15.5432 50.349 15.5432 50.8514 15.9281L52.6807 17.3295C53.7636 18.159 55.2725 17.1079 54.8696 15.8046L54.09 13.2827C53.9159 12.7198 54.113 12.1081 54.5829 11.7526L56.673 10.1717Z" fill="#FFAD33"/>
<path d="M76.673 10.1717C77.7437 9.36184 77.1709 7.65517 75.8284 7.65517H73.3992C72.7853 7.65517 72.243 7.25521 72.0617 6.66868L71.3375 4.32637C70.9309 3.01106 69.0691 3.01106 68.6625 4.32637L67.9383 6.66868C67.757 7.25521 67.2147 7.65517 66.6008 7.65517H64.1296C62.7914 7.65517 62.2159 9.35274 63.2782 10.1665L65.3947 11.7879C65.8588 12.1435 66.0531 12.7501 65.882 13.3092L65.113 15.8207C64.7142 17.1232 66.2217 18.1704 67.303 17.342L69.1486 15.9281C69.651 15.5432 70.349 15.5432 70.8514 15.9281L72.6807 17.3295C73.7636 18.159 75.2725 17.1079 74.8696 15.8046L74.09 13.2827C73.9159 12.7198 74.113 12.1081 74.5829 11.7526L76.673 10.1717Z" fill="#FFAD33"/>
<path d="M89.9999 1.83332C89.7508 1.83148 89.5063 1.90035 89.2948 2.03193C89.0833 2.16351 88.9134 2.35239 88.8049 2.57665L86.9533 6.32998L82.8099 6.93165C82.5635 6.96716 82.3319 7.07097 82.1414 7.23132C81.9509 7.39167 81.8092 7.60215 81.7321 7.83893C81.6551 8.0757 81.6459 8.32932 81.7056 8.57104C81.7653 8.81277 81.8915 9.03295 82.0699 9.20665L85.0699 12.1283L84.3616 16.255C84.3195 16.5001 84.3467 16.7521 84.4403 16.9826C84.5339 17.213 84.6901 17.4127 84.8912 17.559C85.0923 17.7053 85.3304 17.7925 85.5784 17.8106C85.8265 17.8288 86.0747 17.7772 86.2949 17.6617L89.9999 15.7133V1.83332Z" fill="#FFAD33"/>
<path opacity="0.25" d="M89.9999 1.83592C90.249 1.83401 90.5 1.99998 90.5 1.99998C90.5 1.99998 91.0865 2.20804 91.1949 2.44192L93.0466 6.35631L97.1901 6.9838C97.4365 7.02083 97.6681 7.12909 97.8586 7.29632C98.0491 7.46355 98.1908 7.68306 98.2679 7.93C98.3449 8.17694 98.3541 8.44144 98.2944 8.69354C98.2347 8.94564 98.1085 9.17527 97.9301 9.35642L94.93 12.4035L95.6384 16.7072C95.6805 16.9628 95.6532 17.2257 95.5596 17.466C95.466 17.7063 95.3099 17.9146 95.1087 18.0672C94.9076 18.2198 94.6696 18.3107 94.4215 18.3296C94.1734 18.3485 93.9253 18.2947 93.705 18.1742L89.9999 16.1423V1.83592Z" fill="black"/>
</svg>
